# xmcd
#
# Track frame offsets:
# 150
# 62024
# 76199
# 109445
# 140819
# 169660
# 184587
# 235932
# 246406
#
# Disc length: 3541 seconds
#
# Revision: 0
# Processed by: cddbd v1.5.2PL0 Copyright (c) Steve Scherf et al.
# Submitted via: Audion 3.0.2 (http://www.panic.com/audion/)
#
DISCID=7b0dd309
DTITLE=Claude Debussy - Pelleas et Melisande CD1
DYEAR=1900
DGENRE=
TTITLE0=Act1 - Je ne pourrai plus sortir de cette forêt!
TTITLE1=Voici ce qu'il écrit à son frère Pelléas
TTITLE2=Je n'es dis rien
TTITLE3=Il fait sombre dans les jardins
TTITLE4=Act2 - Vous ne savez pas où je vous ai menée?
TTITLE5=Interlude
TTITLE6=Ah! Ah! Tout va bien, cela ne sera rien
TTITLE7=Interlude
TTITLE8=Oui - c'est ici, nous y sommes
EXTD=
EXTT0=
EXTT1=
EXTT2=
EXTT3=
EXTT4=
EXTT5=
EXTT6=
EXTT7=
EXTT8=
PLAYORDER=
